static pose
version=1
nRows=1
nColumns=38
inDegrees=yes
endheader
time	pelvis_tilt	pelvis_list	pelvis_rotation	pelvis_tx	pelvis_ty	pelvis_tz	hip_flexion_r	hip_adduction_r	hip_rotation_r	knee_angle_r	ankle_angle_r	subtalar_angle_r	mtp_angle_r	hip_flexion_l	hip_adduction_l	hip_rotation_l	knee_angle_l	ankle_angle_l	subtalar_angle_l	mtp_angle_l	lumbar_extension	lumbar_bending	lumbar_rotation	arm_flex_r	arm_add_r	arm_rot_r	elbow_flex_r	pro_sup_r	wrist_flex_r	wrist_dev_r	arm_flex_l	arm_add_l	arm_rot_l	elbow_flex_l	pro_sup_l	wrist_flex_l	wrist_dev_l
      0.00000000	     -1.79342476	      0.23240586	     -0.43291365	      0.11814453	      0.91586963	      0.00531490	     -4.84218944	     -1.45370561	     10.42887953	      1.62775661	      6.19010523	      0.00000000	      0.00000000	     -4.89348170	     -1.81236574	     13.40500495	     -0.34498543	      9.67736998	      0.00000000	      0.00000000	      1.05558374	      2.20694154	     -5.61233473	     -2.30021285	    -10.72758617	      7.09064953	     37.42087358	    115.04648040	      0.00000000	      0.00000000	     -6.88829504	     -8.91517189	      3.82411859	     37.76640088	    114.90599057	      0.00000000	      0.00000000
